<svg width="8785" height="9972" viewBox="0 0 8785 9972" fill="none" xmlns="http://www.w3.org/2000/svg">
<path d="M8440.91 2449.99C8440.91 2771.61 8336.34 3090.08 8133.15 3387.22C7929.96 3684.36 7632.15 3954.35 7256.71 4181.77C6881.27 4409.19 6435.55 4589.59 5945.02 4712.67C5454.48 4835.75 4928.73 4899.09 4397.78 4899.09C3866.83 4899.09 3341.07 4835.75 2850.54 4712.67C2360 4589.59 1914.29 4409.19 1538.85 4181.77C1163.41 3954.35 865.594 3684.36 662.408 3387.22C459.221 3090.08 354.642 2771.61 354.642 2449.99L365.944 2449.99C365.944 2770.71 470.231 3088.29 672.849 3384.6C875.468 3680.91 1172.45 3950.14 1546.84 4176.93C1921.23 4403.71 2365.7 4583.61 2854.86 4706.34C3344.03 4829.08 3868.31 4892.25 4397.78 4892.25C4927.25 4892.25 5451.53 4829.08 5940.69 4706.34C6429.86 4583.61 6874.32 4403.71 7248.72 4176.93C7623.11 3950.14 7920.09 3680.91 8122.71 3384.6C8325.33 3088.29 8429.61 2770.71 8429.61 2449.99H8440.91Z" fill="#CCCCCC"/>
<path d="M8784 2529.16C8784 3178.71 8321.33 3801.65 7497.76 4260.94C6674.19 4720.24 5557.2 4978.27 4392.5 4978.27C3227.8 4978.27 2110.81 4720.24 1287.24 4260.94C463.675 3801.65 1.00018 3178.71 1 2529.16L13.2759 2529.16C13.2761 3176.89 474.657 3798.09 1295.92 4256.1C2117.19 4714.11 3231.06 4971.42 4392.5 4971.42C5553.94 4971.42 6667.82 4714.11 7489.08 4256.1C8310.34 3798.09 8771.72 3176.89 8771.72 2529.16H8784Z" stroke="#A0A0A0" stroke-dasharray="26 26"/>
<path d="M8018.65 2529.16C8018.65 2827.22 7924.93 3122.35 7742.83 3397.72C7560.73 3673.08 7293.83 3923.29 6957.35 4134.04C6620.88 4344.8 6221.42 4511.98 5781.8 4626.04C5342.17 4740.1 4870.99 4798.81 4395.14 4798.81C3919.29 4798.81 3448.1 4740.1 3008.48 4626.04C2568.85 4511.98 2169.4 4344.8 1832.93 4134.04C1496.45 3923.29 1229.55 3673.08 1047.45 3397.72C865.349 3122.35 771.624 2827.22 771.624 2529.16L781.753 2529.16C781.753 2826.38 875.216 3120.69 1056.81 3395.29C1238.39 3669.89 1504.55 3919.39 1840.09 4129.56C2175.62 4339.72 2573.96 4506.44 3012.36 4620.18C3450.75 4733.92 3920.62 4792.46 4395.14 4792.46C4869.66 4792.46 5339.53 4733.92 5777.92 4620.18C6216.32 4506.44 6614.66 4339.73 6950.19 4129.56C7285.72 3919.39 7551.88 3669.89 7733.47 3395.29C7915.06 3120.69 8008.53 2826.38 8008.53 2529.16H8018.65Z" fill="#CCCCCC"/>
<path d="M7749.46 2402.48C7749.46 3004.43 7395.78 3581.73 6766.23 4007.37C6136.68 4433.01 5282.82 4672.13 4392.5 4672.13C3502.18 4672.13 2648.32 4433.01 2018.77 4007.37C1389.22 3581.73 1035.54 3004.43 1035.54 2402.49L1044.92 2402.49C1044.92 3002.75 1397.61 3578.43 2025.4 4002.88C2653.2 4427.33 3504.67 4665.79 4392.5 4665.79C5280.33 4665.79 6131.8 4427.33 6759.6 4002.88C7387.39 3578.43 7740.08 3002.75 7740.08 2402.48H7749.46Z" fill="#CCCCCC"/>
<path d="M354.643 7522.38C354.643 7200.76 459.222 6882.29 662.408 6585.15C865.595 6288.01 1163.41 6018.02 1538.85 5790.6C1914.29 5563.18 2360 5382.78 2850.54 5259.7C3341.07 5136.63 3866.83 5073.28 4397.78 5073.28C4928.73 5073.28 5454.48 5136.63 5945.02 5259.7C6435.56 5382.78 6881.27 5563.18 7256.71 5790.6C7632.15 6018.02 7929.96 6288.01 8133.15 6585.15C8336.33 6882.29 8440.91 7200.76 8440.91 7522.38L8429.61 7522.38C8429.61 7201.66 8325.33 6884.08 8122.71 6587.77C7920.09 6291.46 7623.11 6022.23 7248.72 5795.44C6874.32 5568.66 6429.86 5388.76 5940.69 5266.03C5451.53 5143.29 4927.25 5080.12 4397.78 5080.12C3868.31 5080.12 3344.03 5143.29 2854.86 5266.03C2365.7 5388.76 1921.23 5568.66 1546.84 5795.45C1172.45 6022.23 875.469 6291.46 672.85 6587.77C470.232 6884.08 365.945 7201.66 365.945 7522.38L354.643 7522.38Z" fill="#CCCCCC"/>
<path d="M771.624 7443.21C771.624 7145.15 865.349 6850.02 1047.45 6574.65C1229.55 6299.29 1496.45 6049.08 1832.93 5838.33C2169.4 5627.57 2568.85 5460.39 3008.48 5346.33C3448.1 5232.27 3919.29 5173.56 4395.14 5173.56C4870.99 5173.56 5342.17 5232.27 5781.8 5346.33C6221.42 5460.39 6620.88 5627.57 6957.35 5838.33C7293.83 6049.08 7560.73 6299.29 7742.83 6574.65C7924.93 6850.02 8018.65 7145.15 8018.65 7443.21L8008.53 7443.21C8008.53 7145.99 7915.06 6851.68 7733.47 6577.08C7551.88 6302.48 7285.72 6052.98 6950.19 5842.81C6614.65 5632.65 6216.32 5465.93 5777.92 5352.19C5339.53 5238.45 4869.66 5179.91 4395.14 5179.91C3920.62 5179.91 3450.75 5238.45 3012.36 5352.19C2573.96 5465.93 2175.62 5632.65 1840.09 5842.81C1504.56 6052.98 1238.4 6302.48 1056.81 6577.08C875.216 6851.68 781.753 7145.99 781.753 7443.21L771.624 7443.21Z" fill="#CCCCCC"/>
<path d="M1320.56 7358.76C1320.56 7105.07 1400.22 6853.86 1555 6619.48C1709.78 6385.09 1936.64 6172.13 2222.63 5992.74C2508.62 5813.35 2848.14 5671.06 3221.81 5573.97C3595.47 5476.89 3995.96 5426.92 4400.42 5426.92C4804.87 5426.92 5205.36 5476.89 5579.03 5573.97C5952.69 5671.06 6292.21 5813.35 6578.2 5992.74C6864.2 6172.13 7091.06 6385.09 7245.83 6619.48C7400.61 6853.86 7480.27 7105.06 7480.27 7358.76L7471.66 7358.76C7471.66 7105.77 7392.22 6855.27 7237.88 6621.54C7083.53 6387.82 6857.31 6175.45 6572.12 5996.56C6286.92 5817.67 5948.35 5675.77 5575.73 5578.96C5203.11 5482.15 4803.74 5432.32 4400.42 5432.32C3997.1 5432.32 3597.72 5482.15 3225.1 5578.96C2852.48 5675.77 2513.91 5817.67 2228.72 5996.56C1943.53 6175.45 1717.3 6387.82 1562.96 6621.54C1408.61 6855.27 1329.17 7105.77 1329.17 7358.76L1320.56 7358.76Z" fill="#CCCCCC"/>
<mask id="path-8-inside-1_5_22" fill="white">
<path d="M1040.81 7569.89C1040.81 6967.94 1394.77 6390.65 2024.82 5965C2654.87 5539.36 3509.39 5300.24 4400.42 5300.24C5291.44 5300.24 6145.97 5539.36 6776.01 5965C7406.06 6390.65 7760.02 6967.94 7760.02 7569.89L7750.63 7569.89C7750.63 6969.62 7397.66 6393.94 6769.37 5969.49C6141.09 5545.04 5288.95 5306.59 4400.42 5306.59C3511.88 5306.59 2659.74 5545.04 2031.46 5969.49C1403.17 6393.94 1050.2 6969.62 1050.2 7569.89L1040.81 7569.89Z"/>
</mask>
<path d="M1040.81 7569.89C1040.81 6967.94 1394.77 6390.65 2024.82 5965C2654.87 5539.36 3509.39 5300.24 4400.42 5300.24C5291.44 5300.24 6145.97 5539.36 6776.01 5965C7406.06 6390.65 7760.02 6967.94 7760.02 7569.89L7750.63 7569.89C7750.63 6969.62 7397.66 6393.94 6769.37 5969.49C6141.09 5545.04 5288.95 5306.59 4400.42 5306.59C3511.88 5306.59 2659.74 5545.04 2031.46 5969.49C1403.17 6393.94 1050.2 6969.62 1050.2 7569.89L1040.81 7569.89Z" stroke="#A0A0A0" stroke-width="2" stroke-dasharray="26 26" mask="url(#path-8-inside-1_5_22)"/>
</svg>
