<svg width="202" height="57" viewBox="0 0 202 57" fill="none" xmlns="http://www.w3.org/2000/svg">
<path d="M78.768 34.864C79.0453 34.864 79.2587 34.992 79.408 35.248C79.5787 35.504 79.664 35.856 79.664 36.304C79.664 37.136 79.4613 37.7973 79.056 38.288C77.8613 39.7173 76.6987 40.72 75.568 41.296C74.4587 41.872 73.1147 42.16 71.536 42.16C70.4267 42.16 69.4027 42.0213 68.464 41.744C67.5253 41.4667 66.384 41.0507 65.04 40.496C63.824 39.9627 62.6507 39.5253 61.52 39.184C60.432 41.168 58.8 42.16 56.624 42.16C55.4293 42.16 54.48 41.8933 53.776 41.36C53.0507 40.8053 52.688 40.1013 52.688 39.248C52.688 38.2027 53.1893 37.3387 54.192 36.656C55.1947 35.952 56.528 35.6 58.192 35.6H58.608L59.184 26.288C59.312 24.1547 59.696 22.3947 60.336 21.008C60.976 19.6213 61.8613 18.4373 62.992 17.456C63.9733 16.6027 65.0933 15.9627 66.352 15.536C67.6107 15.088 68.944 14.864 70.352 14.864C72.656 14.864 74.4267 15.4613 75.664 16.656C76.9013 17.8507 77.52 19.408 77.52 21.328C77.52 22.6293 77.2853 23.6853 76.816 24.496C76.3467 25.2853 75.696 25.68 74.864 25.68C74.2667 25.68 73.7973 25.5413 73.456 25.264C73.1147 24.9653 72.944 24.5493 72.944 24.016C72.944 23.824 72.9867 23.472 73.072 22.96C73.2 22.3627 73.264 21.8293 73.264 21.36C73.264 20.464 72.9973 19.76 72.464 19.248C71.952 18.7147 71.1627 18.448 70.096 18.448C68.2187 18.448 66.768 19.0667 65.744 20.304C64.72 21.52 64.0693 23.44 63.792 26.064L63.056 33.328C62.9493 34.352 62.8107 35.2373 62.64 35.984C64.0053 36.2187 65.712 36.592 67.76 37.104C68.9547 37.4027 69.872 37.616 70.512 37.744C71.152 37.872 71.7173 37.936 72.208 37.936C73.4453 37.936 74.5013 37.7333 75.376 37.328C76.272 36.9013 77.1147 36.2293 77.904 35.312C78.16 35.0133 78.448 34.864 78.768 34.864ZM80.3313 42.16C79.3713 42.16 78.5819 41.7227 77.9633 40.848C77.3659 39.952 77.0673 38.8427 77.0673 37.52C77.0673 35.92 77.1739 34.4587 77.3873 33.136C77.6006 31.792 77.9526 30.3733 78.4433 28.88C78.6566 28.24 78.9553 27.7813 79.3393 27.504C79.7233 27.2267 80.3313 27.088 81.1633 27.088C81.6326 27.088 81.9526 27.1627 82.1233 27.312C82.3153 27.4613 82.4113 27.6853 82.4113 27.984C82.4113 28.1547 82.2939 28.7307 82.0593 29.712C81.8459 30.5013 81.6753 31.216 81.5473 31.856C81.1206 34.096 80.9073 35.5893 80.9073 36.336C80.9073 36.784 80.9606 37.104 81.0673 37.296C81.1739 37.4667 81.3446 37.552 81.5793 37.552C81.8993 37.552 82.2939 37.232 82.7633 36.592C83.2539 35.952 83.7659 34.9813 84.2993 33.68C84.8539 32.3787 85.3873 30.7787 85.8993 28.88C86.0699 28.24 86.3259 27.7813 86.6673 27.504C87.0299 27.2267 87.5633 27.088 88.2673 27.088C88.7579 27.088 89.0993 27.152 89.2913 27.28C89.4833 27.3867 89.5793 27.6 89.5793 27.92C89.5793 28.4533 89.3126 29.9147 88.7793 32.304C88.1819 35.0347 87.8833 36.72 87.8833 37.36C87.8833 37.7653 87.9686 38.0853 88.1393 38.32C88.3099 38.5333 88.5339 38.64 88.8113 38.64C89.2379 38.64 89.7393 38.384 90.3153 37.872C90.9126 37.3387 91.7019 36.4853 92.6833 35.312C92.9393 35.0133 93.2273 34.864 93.5473 34.864C93.8246 34.864 94.0379 34.992 94.1873 35.248C94.3579 35.504 94.4433 35.856 94.4433 36.304C94.4433 37.1573 94.2406 37.8187 93.8353 38.288C92.9179 39.4187 91.9259 40.3467 90.8593 41.072C89.8139 41.7973 88.6193 42.16 87.2753 42.16C86.2513 42.16 85.4939 41.7653 85.0033 40.976C84.5339 40.1867 84.2993 39.0773 84.2993 37.648C83.9366 39.0987 83.3926 40.2187 82.6673 41.008C81.9419 41.776 81.1633 42.16 80.3313 42.16ZM108.001 32.272C108.065 32.2507 108.172 32.24 108.321 32.24C108.641 32.24 108.886 32.3467 109.057 32.56C109.228 32.7733 109.313 33.0613 109.313 33.424C109.313 34.0853 109.185 34.608 108.929 34.992C108.673 35.3547 108.289 35.6213 107.777 35.792C106.796 36.112 105.75 36.272 104.641 36.272C103.702 36.272 102.817 36.144 101.985 35.888C101.366 36.8907 100.684 37.9253 99.937 38.992C99.0837 40.208 98.3477 41.04 97.729 41.488C97.1103 41.936 96.4063 42.16 95.617 42.16C94.7423 42.16 94.049 41.8187 93.537 41.136C93.0463 40.4533 92.737 39.376 92.609 37.904C92.353 34.9173 92.225 32.304 92.225 30.064V28.944C92.2463 28.24 92.4383 27.7493 92.801 27.472C93.1637 27.1947 93.7077 27.056 94.433 27.056C94.9877 27.056 95.393 27.184 95.649 27.44C95.9263 27.6747 96.065 28.08 96.065 28.656C96.065 31.1093 96.2143 34.2987 96.513 38.224C97.793 36.3253 98.753 34.8107 99.393 33.68C99.073 33.0613 98.913 32.3253 98.913 31.472C98.913 30.7467 99.073 30.0427 99.393 29.36C99.713 28.6773 100.15 28.1227 100.705 27.696C101.26 27.2693 101.889 27.056 102.593 27.056C103.212 27.056 103.713 27.28 104.097 27.728C104.481 28.1547 104.673 28.784 104.673 29.616C104.673 30.576 104.417 31.6747 103.905 32.912C104.716 32.8693 105.793 32.7093 107.137 32.432L108.001 32.272ZM118.664 34.864C118.941 34.864 119.155 34.992 119.304 35.248C119.475 35.504 119.56 35.856 119.56 36.304C119.56 37.1573 119.357 37.8187 118.952 38.288C118.035 39.4187 117.032 40.3467 115.944 41.072C114.877 41.7973 113.661 42.16 112.296 42.16C110.419 42.16 109.021 41.3067 108.104 39.6C107.208 37.8933 106.76 35.6853 106.76 32.976C106.76 30.3733 107.091 27.408 107.752 24.08C108.435 20.752 109.427 17.8933 110.728 15.504C112.051 13.1147 113.619 11.92 115.432 11.92C116.456 11.92 117.256 12.4 117.832 13.36C118.429 14.2987 118.728 15.6533 118.728 17.424C118.728 19.9627 118.024 22.9067 116.616 26.256C115.208 29.6053 113.299 32.9227 110.888 36.208C111.037 37.0827 111.283 37.712 111.624 38.096C111.965 38.4587 112.413 38.64 112.968 38.64C113.843 38.64 114.611 38.3947 115.272 37.904C115.933 37.392 116.776 36.528 117.8 35.312C118.056 35.0133 118.344 34.864 118.664 34.864ZM114.728 15.088C114.237 15.088 113.683 15.9733 113.064 17.744C112.445 19.5147 111.901 21.712 111.432 24.336C110.963 26.96 110.707 29.4773 110.664 31.888C112.179 29.392 113.384 26.896 114.28 24.4C115.176 21.8827 115.624 19.5893 115.624 17.52C115.624 15.8987 115.325 15.088 114.728 15.088ZM133.358 34.928C133.635 34.928 133.848 35.0667 133.998 35.344C134.168 35.6 134.253 35.9307 134.253 36.336C134.253 36.8267 134.179 37.2107 134.03 37.488C133.88 37.7653 133.646 38.0107 133.326 38.224L127.182 42.352C126.371 46.768 125.304 50.2347 123.982 52.752C122.68 55.2907 121.016 56.56 118.99 56.56C117.902 56.56 117.016 56.2187 116.334 55.536C115.651 54.8747 115.309 54 115.309 52.912C115.309 51.9093 115.534 50.8853 115.982 49.84C116.451 48.7947 117.304 47.5893 118.542 46.224C119.8 44.88 121.571 43.3333 123.854 41.584L123.95 40.848C124.099 40.0587 124.27 38.928 124.462 37.456C124.035 38.992 123.438 40.1653 122.67 40.976C121.902 41.7653 121.091 42.16 120.238 42.16C119.278 42.16 118.488 41.7227 117.87 40.848C117.272 39.952 116.974 38.8427 116.974 37.52C116.974 35.92 117.08 34.4587 117.294 33.136C117.507 31.792 117.859 30.3733 118.35 28.88C118.563 28.24 118.862 27.7813 119.246 27.504C119.63 27.2267 120.238 27.088 121.07 27.088C121.539 27.088 121.859 27.1627 122.03 27.312C122.222 27.4613 122.318 27.6853 122.318 27.984C122.318 28.1547 122.2 28.7307 121.966 29.712C121.752 30.5013 121.582 31.216 121.454 31.856C121.283 32.7307 121.134 33.5733 121.006 34.384C120.878 35.1733 120.814 35.824 120.814 36.336C120.814 37.1467 121.038 37.552 121.486 37.552C121.806 37.552 122.2 37.232 122.67 36.592C123.16 35.952 123.672 34.9813 124.206 33.68C124.76 32.3787 125.294 30.7787 125.806 28.88C125.976 28.24 126.232 27.7813 126.574 27.504C126.936 27.2267 127.47 27.088 128.174 27.088C128.664 27.088 129.006 27.152 129.198 27.28C129.39 27.408 129.486 27.6213 129.486 27.92C129.486 28.4533 129.208 30.288 128.654 33.424L127.822 38.576C129.464 37.3387 131.064 36.208 132.622 35.184C132.899 35.0133 133.144 34.928 133.358 34.928ZM119.342 53.456C119.875 53.456 120.472 52.8373 121.134 51.6C121.795 50.3627 122.456 48.304 123.118 45.424C121.475 46.8107 120.28 48.0693 119.534 49.2C118.808 50.352 118.446 51.3547 118.446 52.208C118.446 52.5707 118.51 52.8693 118.638 53.104C118.787 53.3387 119.022 53.456 119.342 53.456ZM172.926 28.176C173.417 28.176 173.769 28.2827 173.982 28.496C174.217 28.7093 174.334 28.9867 174.334 29.328C174.334 29.8827 174.163 30.3733 173.822 30.8C173.502 31.2267 172.99 31.4507 172.286 31.472C170.601 31.4933 169.086 31.3653 167.742 31.088C166.249 34.2667 164.446 36.912 162.334 39.024C160.243 41.1147 158.174 42.16 156.126 42.16C154.249 42.16 152.841 41.168 151.902 39.184C150.963 37.1787 150.43 34.5013 150.302 31.152C149.022 34.864 147.571 37.6267 145.95 39.44C144.35 41.2533 142.643 42.16 140.83 42.16C138.782 42.16 137.235 40.8907 136.19 38.352C135.145 35.792 134.622 32.3573 134.622 28.048C134.622 24.912 134.899 21.4667 135.454 17.712C135.603 16.6453 135.87 15.9093 136.254 15.504C136.659 15.0773 137.289 14.864 138.142 14.864C138.782 14.864 139.273 15.0027 139.614 15.28C139.977 15.5573 140.158 16.0693 140.158 16.816C140.158 16.9653 140.137 17.2533 140.094 17.68C139.454 22.0533 139.134 25.776 139.134 28.848C139.134 31.7067 139.379 33.9147 139.87 35.472C140.361 37.0293 141.022 37.808 141.854 37.808C142.601 37.808 143.497 37.0293 144.542 35.472C145.609 33.8933 146.665 31.568 147.71 28.496C148.755 25.4027 149.641 21.7227 150.366 17.456C150.537 16.4747 150.846 15.8027 151.294 15.44C151.763 15.056 152.393 14.864 153.182 14.864C153.843 14.864 154.323 15.0133 154.622 15.312C154.942 15.5893 155.102 16.016 155.102 16.592C155.102 16.9333 155.081 17.2 155.038 17.392C154.441 20.8693 154.142 24.3467 154.142 27.824C154.142 30.192 154.217 32.08 154.366 33.488C154.537 34.896 154.846 35.9733 155.294 36.72C155.763 37.4453 156.435 37.808 157.31 37.808C158.334 37.808 159.475 37.04 160.734 35.504C161.993 33.9467 163.145 32.016 164.19 29.712C162.889 28.9013 161.907 27.856 161.246 26.576C160.585 25.2747 160.254 23.7813 160.254 22.096C160.254 20.4107 160.51 18.992 161.022 17.84C161.555 16.6667 162.27 15.792 163.166 15.216C164.083 14.64 165.097 14.352 166.206 14.352C167.571 14.352 168.649 14.8427 169.438 15.824C170.249 16.8053 170.654 18.1493 170.654 19.856C170.654 22.2667 170.131 24.944 169.086 27.888C170.174 28.08 171.454 28.176 172.926 28.176ZM163.486 21.872C163.486 23.9627 164.158 25.5093 165.502 26.512C166.334 24.1227 166.75 22.1493 166.75 20.592C166.75 19.696 166.633 19.0453 166.398 18.64C166.163 18.2133 165.843 18 165.438 18C164.862 18 164.393 18.3413 164.03 19.024C163.667 19.6853 163.486 20.6347 163.486 21.872ZM185.496 34.864C185.773 34.864 185.986 34.992 186.135 35.248C186.306 35.504 186.392 35.856 186.392 36.304C186.392 37.1573 186.189 37.8187 185.784 38.288C184.994 39.248 183.874 40.1333 182.424 40.944C180.994 41.7547 179.458 42.16 177.816 42.16C175.576 42.16 173.837 41.552 172.6 40.336C171.362 39.12 170.743 37.456 170.743 35.344C170.743 33.872 171.053 32.5067 171.672 31.248C172.29 29.968 173.144 28.9547 174.232 28.208C175.341 27.4613 176.589 27.088 177.976 27.088C179.213 27.088 180.205 27.4613 180.952 28.208C181.698 28.9333 182.072 29.9253 182.072 31.184C182.072 32.656 181.538 33.9253 180.472 34.992C179.426 36.0373 177.645 36.8693 175.128 37.488C175.661 38.4693 176.674 38.96 178.168 38.96C179.128 38.96 180.216 38.6293 181.432 37.968C182.669 37.2853 183.736 36.4 184.632 35.312C184.888 35.0133 185.176 34.864 185.496 34.864ZM177.432 30.224C176.642 30.224 175.97 30.6827 175.416 31.6C174.882 32.5173 174.616 33.6267 174.616 34.928V34.992C175.874 34.6933 176.866 34.2453 177.592 33.648C178.317 33.0507 178.68 32.3573 178.68 31.568C178.68 31.1627 178.562 30.8427 178.328 30.608C178.114 30.352 177.816 30.224 177.432 30.224ZM195.278 34.864C195.512 36.6133 195.854 38.3413 196.302 40.048C196.387 40.3253 196.43 40.6133 196.43 40.912C196.43 41.872 195.843 42.352 194.67 42.352C194.008 42.352 193.496 42.1707 193.134 41.808C192.792 41.4453 192.472 40.7627 192.174 39.76L192.142 39.632C191.331 40.6347 190.595 41.3067 189.934 41.648C189.294 41.9893 188.547 42.16 187.694 42.16C186.392 42.16 185.315 41.68 184.462 40.72C183.63 39.7387 183.214 38.4693 183.214 36.912C183.214 35.2053 183.576 33.6267 184.302 32.176C185.027 30.7253 186.019 29.5413 187.278 28.624C188.536 27.6853 189.944 27.12 191.502 26.928C191.907 22.896 192.675 19.3867 193.806 16.4C194.958 13.4133 196.483 11.92 198.382 11.92C199.299 11.92 200.056 12.336 200.654 13.168C201.272 14 201.582 15.2587 201.582 16.944C201.582 19.2907 201.006 22.032 199.854 25.168C198.702 28.304 197.176 31.536 195.278 34.864ZM198.03 15.056C197.411 15.056 196.824 16.6347 196.27 19.792C195.736 22.9493 195.374 26.384 195.182 30.096C197.55 24.976 198.734 20.816 198.734 17.616C198.734 16.8053 198.659 16.176 198.51 15.728C198.382 15.28 198.222 15.056 198.03 15.056ZM188.814 38.928C189.24 38.928 189.646 38.768 190.03 38.448C190.435 38.128 190.947 37.5093 191.566 36.592C191.352 35.0347 191.246 33.424 191.246 31.76C191.246 31.0987 191.256 30.5867 191.278 30.224C190.104 30.5653 189.134 31.344 188.366 32.56C187.598 33.776 187.214 35.12 187.214 36.592C187.214 38.1493 187.747 38.928 188.814 38.928Z" fill="black"/>
<circle cx="18.4413" cy="33.2141" r="12" transform="rotate(30 18.4413 33.2141)" stroke="#003C7C" stroke-width="3"/>
<circle cx="18.4413" cy="33.2141" r="12" transform="rotate(30 18.4413 33.2141)" stroke="black" stroke-width="3"/>
<circle cx="30.0609" cy="24.1244" r="12.5" transform="rotate(30 30.0609 24.1244)" stroke="#003C7C" stroke-width="3"/>
<circle cx="30.0609" cy="24.1244" r="12.5" transform="rotate(30 30.0609 24.1244)" stroke="black" stroke-width="3"/>
</svg>
